<svg xmlns="http://www.w3.org/2000/svg">
	<symbol id="delete" width="28" height="24" viewBox="0 0 28 24">
		<path d="M23.9655 6.21393e-09C24.9946 -5.6829e-05 25.9848 0.389767 26.7335 1.08971C27.4822 1.78966 27.9329 2.74681 27.9933 3.76533L28 4V20C28.0001 21.0203 27.6069 22.002 26.9009 22.7443C26.1949 23.4867 25.2295 23.9335 24.2022 23.9933L23.9655 24H9.31744C8.67716 23.9999 8.04611 23.8486 7.47646 23.5588C6.9068 23.269 6.4149 22.8489 6.0414 22.3333L5.89616 22.12L0.409197 13.4133C0.163189 13.0233 0.0231291 12.5768 0.00262744 12.1173C-0.0178742 11.6577 0.0818797 11.2007 0.292196 10.7907L0.407852 10.5867L5.89616 1.88C6.2355 1.34159 6.69924 0.891003 7.24902 0.565485C7.79881 0.239967 8.41885 0.0488721 9.05788 0.00800006L9.31744 6.21393e-09H23.9655ZM23.9655 2.66667H9.31744C9.11854 2.66673 8.92214 2.71054 8.74238 2.79492C8.56262 2.87931 8.40397 3.00217 8.27787 3.15467L8.17701 3.29333L2.69005 12L8.17701 20.7067C8.2824 20.874 8.42392 21.016 8.59136 21.1225C8.7588 21.229 8.94799 21.2974 9.1453 21.3227L9.31744 21.3333H23.9655C24.2949 21.3333 24.6128 21.2134 24.8589 20.9964C25.1051 20.7794 25.2624 20.4803 25.3009 20.156L25.3103 20V4C25.3103 3.67342 25.1893 3.35822 24.9705 3.11417C24.7516 2.87012 24.45 2.71421 24.1228 2.676L23.9655 2.66667ZM13.044 7.28533L15.8951 10.1147L18.7488 7.28533C18.8738 7.16154 19.0221 7.06336 19.1853 6.9964C19.3485 6.92944 19.5235 6.895 19.7001 6.89506C19.8767 6.89512 20.0516 6.92968 20.2148 6.99676C20.378 7.06384 20.5262 7.16212 20.6511 7.286C20.776 7.40988 20.875 7.55693 20.9425 7.71875C21.0101 7.88058 21.0448 8.05401 21.0447 8.22914C21.0447 8.40427 21.0098 8.57767 20.9422 8.73945C20.8745 8.90123 20.7754 9.04821 20.6504 9.172L17.7994 12L20.6504 14.828C20.9028 15.078 21.0446 15.4172 21.0447 15.7709C21.0449 16.1246 20.9033 16.4638 20.6511 16.714C20.3989 16.9642 20.0569 17.1048 19.7001 17.1049C19.3434 17.1051 19.0012 16.9647 18.7488 16.7147L15.8964 13.8853L13.044 16.7147C12.7917 16.9649 12.4494 17.1054 12.0925 17.1054C11.7357 17.1054 11.3934 16.9649 11.141 16.7147C10.8887 16.4645 10.7469 16.1252 10.7469 15.7713C10.7469 15.4175 10.8887 15.0782 11.141 14.828L13.9948 12L11.141 9.172C10.8887 8.92181 10.7469 8.58249 10.7469 8.22867C10.7469 7.87485 10.8887 7.53552 11.141 7.28533C11.3934 7.03515 11.7357 6.89459 12.0925 6.89459C12.4494 6.89459 12.7917 7.03515 13.044 7.28533V7.28533Z"/>
	</symbol>

	<symbol id="check" width="12" height="10" viewBox="0 0 12 10">
		<path d="M3.84753 6.98105L10.1973 0.788629C10.3946 0.59621 10.6457 0.5 10.9507 0.5C11.2556 0.5 11.5067 0.59621 11.704 0.788629C11.9013 0.981049 12 1.22595 12 1.52332C12 1.8207 11.9013 2.0656 11.704 2.25802L4.6009 9.18513C4.38565 9.39504 4.13453 9.5 3.84753 9.5C3.56054 9.5 3.30942 9.39504 3.09417 9.18513L0.295964 6.45627C0.0986543 6.26385 0 6.01895 0 5.72157C0 5.4242 0.0986543 5.1793 0.295964 4.98688C0.493273 4.79446 0.744394 4.69825 1.04933 4.69825C1.35426 4.69825 1.60538 4.79446 1.80269 4.98688L3.84753 6.98105Z" />
	</symbol>
</svg>
